<mxfile host="app.diagrams.net" modified="2023-07-05T07:08:39.102Z" agent="Mozilla/5.0 (Macintosh; Intel Mac OS X 10_15_7) AppleWebKit/537.36 (KHTML, like Gecko) Chrome/114.0.0.0 Safari/537.36" version="21.5.2" etag="gV72L3SF2HsuIC04YivL" type="github">
  <diagram name="第 1 页" id="XtTzmu8-IxMdZqrOhkIQ">
    <mxGraphModel>
      <root>
        <mxCell id="0" />
        <mxCell id="1" parent="0" />
      </root>
    </mxGraphModel>
  </diagram>
</mxfile>
